<?xml version="1.0" encoding="UTF-8"?>
<svg width="4123px" height="1442px" viewBox="0 0 4123 1442" version="1.1" xmlns="http://www.w3.org/2000/svg" xmlns:xlink="http://www.w3.org/1999/xlink">
    <!-- Generator: Sketch 46.2 (44496) - http://www.bohemiancoding.com/sketch -->
    <title>Green Copy 2</title>
    <desc>Created with Sketch.</desc>
    <defs></defs>
    <g id="Page-1" stroke="none" stroke-width="1" fill="none" fill-rule="evenodd">
        <g id="Green-Copy-2" transform="translate(-54.000000, -101.000000)">
            <path d="M128,829 C128,829 390.453125,996.984375 531.265625,996.984375 C659.052083,996.984375 933.796875,829 933.796875,829 L531.265625,1542.875 L128,829 Z" id="Triangle-1-Copy-5" fill="#1E4D7C"></path>
            <path d="M863.58231,308.266586 C853.073894,291.960135 752.250274,151 528.841217,151 C305.432159,151 97.23897,342.672306 104.168243,585.449219 C110.281524,799.636719 275.745192,1001.23443 528.841217,1001.23436 C781.937241,1001.2343 954.219024,797.003895 954.219024,585.449208 C849.709543,585.449184 528.841217,585.449219 528.841217,585.449219" id="Path-4-Copy-15" stroke="#1E4D7C" stroke-width="100"></path>
            <text id="EOINT" font-family="Futura-Medium, Futura" font-size="935" font-weight="400" letter-spacing="63.9537468" fill="#1E4D7C">
                <tspan x="1051" y="971">EOINT</tspan>
            </text>
            <text id="viewer" font-family="Futura-Medium, Futura" font-size="400" font-weight="400" letter-spacing="361.100006" fill="#AEAEAE">
                <tspan x="1136" y="1424">viewe</tspan>
                <tspan x="3982.12503" y="1424">r</tspan>
            </text>
        </g>
    </g>
</svg>